<svg version="1.1" id="Layer_1" xmlns="http://www.w3.org/2000/svg" xmlns:xlink="http://www.w3.org/1999/xlink" x="0px" y="0px"
	 width="100%" viewBox="0 0 1024 1024" enable-background="new 0 0 1024 1024" xml:space="preserve">
<path fill="#000000" opacity="1.000000" stroke="none" 
	d="
M577.000000,1025.000000 
	C384.666656,1025.000000 192.833328,1025.000000 1.000000,1025.000000 
	C1.000000,683.666687 1.000000,342.333344 1.000000,1.000000 
	C342.333344,1.000000 683.666687,1.000000 1025.000000,1.000000 
	C1025.000000,342.333344 1025.000000,683.666687 1025.000000,1025.000000 
	C875.833313,1025.000000 726.666687,1025.000000 577.000000,1025.000000 
M114.219368,913.586182 
	C114.798843,914.095642 115.378319,914.605164 116.285149,915.687012 
	C127.457703,926.892273 138.600845,938.127136 149.810516,949.295166 
	C163.138916,962.574097 176.524445,975.795715 190.259720,989.661255 
	C192.254486,992.642395 195.135239,993.062927 198.511597,993.055237 
	C237.285614,992.967102 276.060211,992.929749 314.833710,993.098877 
	C319.066986,993.117371 321.899811,991.720154 324.793457,988.812622 
	C359.070648,954.369934 393.433563,920.012329 427.896118,885.755188 
	C429.686829,883.975159 432.579315,883.303528 435.286072,882.687988 
	C469.709625,917.145264 504.131653,951.604126 538.564026,986.052551 
	C539.615601,987.104553 540.775757,988.048035 542.259705,989.661194 
	C544.847229,990.773499 547.420105,992.808167 550.024719,992.849609 
	C567.844116,993.133301 585.671143,992.901855 603.493286,993.078674 
	C607.147522,993.114929 609.660095,991.944946 612.204346,989.394287 
	C663.260315,938.209778 714.384033,887.092773 765.561890,836.030151 
	C767.976257,833.621216 769.084045,831.213928 769.068848,827.751770 
	C768.944275,799.267395 768.942993,770.781921 769.067139,742.297546 
	C769.083130,738.628296 768.282593,735.785400 764.714783,733.312927 
	C740.849670,709.415161 716.973389,685.528503 693.126587,661.612488 
	C686.318298,654.784424 679.595459,647.871155 672.938354,640.065186 
	C672.959534,631.068298 672.740051,622.060364 673.150269,613.081238 
	C673.271484,610.427429 674.517578,607.213684 676.354919,605.344116 
	C695.039429,586.332703 714.009460,567.602051 732.739868,548.635071 
	C735.449219,545.891541 738.199158,544.928894 741.947876,544.936096 
	C791.763367,545.032166 841.579102,544.965820 891.394592,545.069214 
	C895.009521,545.076721 897.576538,544.047424 900.140991,541.468750 
	C929.863708,511.580475 959.676697,481.781830 989.549377,452.043427 
	C991.964294,449.639343 993.084412,447.235229 993.069153,443.768311 
	C992.943848,415.278961 992.942932,386.788605 993.067078,358.299255 
	C993.083069,354.629639 992.283508,351.785736 988.714722,349.312927 
	C982.153381,342.718872 975.623291,336.093445 969.024231,329.537384 
	C955.714111,316.313873 942.366394,303.128113 928.758545,289.321869 
	C876.228638,236.771469 823.714966,184.204773 771.088379,131.751404 
	C769.554504,130.222519 766.836060,129.143784 764.655334,129.118500 
	C746.664856,128.909973 728.669739,129.114426 710.679199,128.908981 
	C706.832397,128.865051 704.250488,130.136398 701.604858,132.796829 
	C672.471252,162.093567 643.235168,191.288498 613.976868,220.460892 
	C612.251831,222.180847 610.098816,223.471558 607.917419,224.427628 
	C607.333191,223.951263 606.748962,223.474899 605.875793,222.379837 
	C565.103088,181.610458 524.356079,140.815292 483.468903,100.161102 
	C481.736237,98.438309 478.714600,97.170517 476.273132,97.136307 
	C458.278809,96.884216 440.278412,97.093834 422.282257,96.917801 
	C418.840820,96.884140 416.482941,97.890556 414.060913,100.316490 
	C331.641785,182.868240 249.150650,265.348114 166.678070,347.846466 
	C165.396362,349.128601 164.216110,350.512115 162.411865,352.098419 
	C161.605438,353.024231 160.799011,353.950043 159.385376,355.176941 
	C118.150429,396.391937 76.890884,437.582458 35.772163,478.913086 
	C34.160046,480.533508 33.130905,483.488068 33.116333,485.829010 
	C32.937939,514.478394 33.060940,543.129517 32.921185,571.779297 
	C32.904259,575.249512 33.994499,577.610718 36.408783,580.014771 
	C70.048096,613.512207 103.605415,647.091919 137.149216,680.685059 
	C139.788849,683.328552 142.179718,686.220581 144.875137,689.206360 
	C142.220535,691.998901 139.580948,694.895691 136.814972,697.666382 
	C113.866463,720.653442 90.867195,743.589966 67.993759,766.651306 
	C66.526741,768.130371 65.140343,770.515442 65.128265,772.487671 
	C64.946747,802.136414 64.981148,831.786743 65.064133,861.436401 
	C65.068352,862.943604 65.527824,864.889343 66.521736,865.888123 
	C81.903961,881.345764 97.409737,896.680359 113.105804,912.519592 
	C113.395821,912.698181 113.685837,912.876709 114.219368,913.586182 
z"/>
<path fill="#3A8F64" opacity="1.000000" stroke="none" 
	d="
M112.886871,912.043518 
	C97.409737,896.680359 81.903961,881.345764 66.521736,865.888123 
	C65.527824,864.889343 65.068352,862.943604 65.064133,861.436401 
	C64.981148,831.786743 64.946747,802.136414 65.128265,772.487671 
	C65.140343,770.515442 66.526741,768.130371 67.993759,766.651306 
	C90.867195,743.589966 113.866463,720.653442 136.814972,697.666382 
	C139.580948,694.895691 142.220535,691.998901 144.875137,689.206360 
	C142.179718,686.220581 139.788849,683.328552 137.149216,680.685059 
	C103.605415,647.091919 70.048096,613.512207 36.408783,580.014771 
	C33.994499,577.610718 32.904259,575.249512 32.921185,571.779297 
	C33.060940,543.129517 32.937939,514.478394 33.116333,485.829010 
	C33.130905,483.488068 34.160046,480.533508 35.772163,478.913086 
	C76.890884,437.582458 118.150429,396.391937 159.981018,355.346130 
	C160.717651,357.662140 160.979080,359.808807 160.981339,361.955750 
	C161.009995,389.228455 160.925964,416.501770 161.130722,443.772949 
	C161.149155,446.226898 162.972214,448.667297 164.124817,451.397705 
	C183.490021,470.801666 202.687592,489.921875 222.076050,509.348755 
	C224.859680,510.769318 227.444504,512.829895 230.046371,512.851746 
	C258.036163,513.085999 286.029572,512.882996 314.019440,513.111450 
	C318.788910,513.150330 322.015686,511.611206 325.309113,508.312469 
	C418.190674,415.279968 511.163513,322.338654 604.111633,229.372604 
	C605.518799,227.965149 606.803223,226.434906 608.144958,224.962006 
	C610.098816,223.471558 612.251831,222.180847 613.976868,220.460892 
	C643.235168,191.288498 672.471252,162.093567 701.604858,132.796829 
	C704.250488,130.136398 706.832397,128.865051 710.679199,128.908981 
	C728.669739,129.114426 746.664856,128.909973 764.655334,129.118500 
	C766.836060,129.143784 769.554504,130.222519 771.088379,131.751404 
	C823.714966,184.204773 876.228638,236.771469 928.615479,289.811859 
	C926.895081,291.787842 925.278259,293.234314 923.746277,294.765656 
	C884.619568,333.877258 845.465149,372.961365 806.445557,412.179596 
	C802.987305,415.655426 799.422424,417.138977 794.557983,417.079376 
	C777.397156,416.869080 760.230530,416.867371 743.069763,417.081055 
	C738.343994,417.139832 734.943420,415.603699 731.648804,412.265228 
	C713.389832,393.763184 694.903320,375.485931 676.604492,357.022919 
	C673.817261,354.210663 670.869812,352.918793 666.899292,352.950134 
	C649.737000,353.085571 632.572205,353.093384 615.410095,352.943909 
	C611.268372,352.907837 608.190735,354.209900 605.257019,357.153625 
	C565.263916,397.283875 525.203369,437.347107 485.069733,477.336853 
	C482.105408,480.290558 480.911621,483.412659 480.946777,487.525848 
	C481.087616,504.021545 481.164581,520.521606 480.906830,537.014526 
	C480.825043,542.247009 482.377991,546.058594 486.132996,549.779419 
	C515.250732,578.632202 544.156677,607.698669 573.194702,636.632202 
	C575.931824,639.359558 577.239136,641.372742 573.816528,644.784546 
	C522.716125,695.723633 471.738403,746.785767 420.618561,797.705200 
	C418.916168,799.400879 416.057892,800.717041 413.680847,800.815125 
	C404.864502,801.179016 396.020538,801.090149 387.195312,800.856140 
	C385.213165,800.803528 382.753693,799.997009 381.382965,798.652039 
	C371.755341,789.204529 362.355408,779.524963 352.776978,769.760315 
	C352.507935,769.401306 352.312805,769.239807 351.612366,769.093506 
	C322.167236,769.047913 293.194977,769.118835 264.224701,768.912598 
	C259.297546,768.877563 255.826111,770.552429 252.416840,773.974731 
	C208.701553,817.855347 164.870636,861.620850 121.092484,905.438904 
	C119.219879,907.313171 117.574387,909.414429 115.525787,911.505859 
	C114.836189,911.740784 114.443901,911.879700 113.760376,912.022583 
	C113.275047,912.032288 113.080956,912.037903 112.886871,912.043518 
z"/>
<path fill="#3A5651" opacity="1.000000" stroke="none" 
	d="
M352.882690,769.919556 
	C362.355408,779.524963 371.755341,789.204529 381.382965,798.652039 
	C382.753693,799.997009 385.213165,800.803528 387.195312,800.856140 
	C396.020538,801.090149 404.864502,801.179016 413.680847,800.815125 
	C416.057892,800.717041 418.916168,799.400879 420.618561,797.705200 
	C471.738403,746.785767 522.716125,695.723633 573.816528,644.784546 
	C577.239136,641.372742 575.931824,639.359558 573.194702,636.632202 
	C544.156677,607.698669 515.250732,578.632202 486.132996,549.779419 
	C482.377991,546.058594 480.825043,542.247009 480.906830,537.014526 
	C481.164581,520.521606 481.087616,504.021545 480.946777,487.525848 
	C480.911621,483.412659 482.105408,480.290558 485.069733,477.336853 
	C525.203369,437.347107 565.263916,397.283875 605.257019,357.153625 
	C608.190735,354.209900 611.268372,352.907837 615.410095,352.943909 
	C632.572205,353.093384 649.737000,353.085571 666.899292,352.950134 
	C670.869812,352.918793 673.817261,354.210663 676.604492,357.022919 
	C694.903320,375.485931 713.389832,393.763184 731.648804,412.265228 
	C734.943420,415.603699 738.343994,417.139832 743.069763,417.081055 
	C760.230530,416.867371 777.397156,416.869080 794.557983,417.079376 
	C799.422424,417.138977 802.987305,415.655426 806.445557,412.179596 
	C845.465149,372.961365 884.619568,333.877258 923.746277,294.765656 
	C925.278259,293.234314 926.895081,291.787842 928.753296,290.114319 
	C942.366394,303.128113 955.714111,316.313873 969.024231,329.537384 
	C975.623291,336.093445 982.153381,342.718872 988.872742,350.075256 
	C989.019775,379.819946 988.917236,408.802826 989.079956,437.784210 
	C989.110229,443.182983 987.468933,447.197693 983.605896,451.026001 
	C956.040649,478.343658 928.520142,505.710144 901.328308,533.397949 
	C895.850159,538.976013 890.256470,541.203857 882.476013,541.153259 
	C835.341003,540.846497 788.202698,540.924988 741.066833,541.151672 
	C737.394043,541.169373 732.694519,542.234131 730.228394,544.624207 
	C710.735229,563.516907 691.604004,582.786194 672.571716,602.146423 
	C670.677307,604.073486 669.350708,607.332886 669.199768,610.053772 
	C668.757690,618.023926 668.757629,626.050903 669.217102,634.019165 
	C669.354797,636.406677 671.570007,638.674377 672.833435,640.997009 
	C679.595459,647.871155 686.318298,654.784424 693.126587,661.612488 
	C716.973389,685.528503 740.849670,709.415161 764.872742,734.075317 
	C765.019287,764.000671 764.949280,793.163940 765.054810,822.326599 
	C765.072144,827.125793 763.753540,830.863831 760.265198,834.341187 
	C710.223938,884.224976 660.261475,934.187988 610.376892,984.228455 
	C606.907227,987.708923 603.189331,989.091736 598.377625,989.057373 
	C579.547729,988.922913 560.716187,989.026794 541.885254,989.042114 
	C540.775757,988.048035 539.615601,987.104553 538.564026,986.052551 
	C504.131653,951.604126 469.709625,917.145264 435.054657,882.044434 
	C432.782990,876.913696 431.021759,876.348389 427.474213,879.196716 
	C426.053192,880.337708 424.806030,881.699951 423.512024,882.993774 
	C390.206055,916.292603 356.835632,949.527649 323.684998,982.980469 
	C319.328583,987.376648 314.809723,989.125427 308.708130,989.098022 
	C269.101227,988.919861 229.493011,989.027893 189.885223,989.042175 
	C176.524445,975.795715 163.138916,962.574097 149.810516,949.295166 
	C138.600845,938.127136 127.457703,926.892273 116.109131,914.939819 
	C115.896446,913.265015 115.859772,912.337463 115.823097,911.409912 
	C117.574387,909.414429 119.219879,907.313171 121.092484,905.438904 
	C164.870636,861.620850 208.701553,817.855347 252.416840,773.974731 
	C255.826111,770.552429 259.297546,768.877563 264.224701,768.912598 
	C293.194977,769.118835 322.167236,769.047913 351.741211,769.230103 
	C352.518921,769.570923 352.698639,769.747498 352.882690,769.919556 
z"/>
<path fill="#92DD7E" opacity="1.000000" stroke="none" 
	d="
M221.885162,509.042114 
	C202.687592,489.921875 183.490021,470.801666 164.192047,450.974426 
	C164.392273,447.130096 164.945038,443.993469 164.953674,440.855286 
	C165.024216,415.262207 165.080841,389.668243 164.903229,364.076172 
	C164.874924,359.996002 163.656647,355.924072 162.988495,351.848328 
	C164.216110,350.512115 165.396362,349.128601 166.678070,347.846466 
	C249.150650,265.348114 331.641785,182.868240 414.060913,100.316490 
	C416.482941,97.890556 418.840820,96.884140 422.282257,96.917801 
	C440.278412,97.093834 458.278809,96.884216 476.273132,97.136307 
	C478.714600,97.170517 481.736237,98.438309 483.468903,100.161102 
	C524.356079,140.815292 565.103088,181.610458 605.664917,222.766281 
	C602.812012,225.092484 599.864563,226.726379 597.572205,229.016144 
	C506.125946,320.358856 414.718140,411.740112 323.412903,503.223694 
	C319.324890,507.319702 315.109009,509.132538 309.328888,509.094238 
	C280.182129,508.900909 251.033279,509.027679 221.885162,509.042114 
z"/>
<path fill="#92DD7E" opacity="1.000000" stroke="none" 
	d="
M222.076050,509.348755 
	C251.033279,509.027679 280.182129,508.900909 309.328888,509.094238 
	C315.109009,509.132538 319.324890,507.319702 323.412903,503.223694 
	C414.718140,411.740112 506.125946,320.358856 597.572205,229.016144 
	C599.864563,226.726379 602.812012,225.092484 605.809326,223.075623 
	C606.748962,223.474899 607.333191,223.951263 608.031189,224.694809 
	C606.803223,226.434906 605.518799,227.965149 604.111633,229.372604 
	C511.163513,322.338654 418.190674,415.279968 325.309113,508.312469 
	C322.015686,511.611206 318.788910,513.150330 314.019440,513.111450 
	C286.029572,512.882996 258.036163,513.085999 230.046371,512.851746 
	C227.444504,512.829895 224.859680,510.769318 222.076050,509.348755 
z"/>
<path fill="#3A5651" opacity="1.000000" stroke="none" 
	d="
M672.885864,640.531128 
	C671.570007,638.674377 669.354797,636.406677 669.217102,634.019165 
	C668.757629,626.050903 668.757690,618.023926 669.199768,610.053772 
	C669.350708,607.332886 670.677307,604.073486 672.571716,602.146423 
	C691.604004,582.786194 710.735229,563.516907 730.228394,544.624207 
	C732.694519,542.234131 737.394043,541.169373 741.066833,541.151672 
	C788.202698,540.924988 835.341003,540.846497 882.476013,541.153259 
	C890.256470,541.203857 895.850159,538.976013 901.328308,533.397949 
	C928.520142,505.710144 956.040649,478.343658 983.605896,451.026001 
	C987.468933,447.197693 989.110229,443.182983 989.079956,437.784210 
	C988.917236,408.802826 989.019775,379.819946 989.036438,350.361389 
	C992.283508,351.785736 993.083069,354.629639 993.067078,358.299255 
	C992.942932,386.788605 992.943848,415.278961 993.069153,443.768311 
	C993.084412,447.235229 991.964294,449.639343 989.549377,452.043427 
	C959.676697,481.781830 929.863708,511.580475 900.140991,541.468750 
	C897.576538,544.047424 895.009521,545.076721 891.394592,545.069214 
	C841.579102,544.965820 791.763367,545.032166 741.947876,544.936096 
	C738.199158,544.928894 735.449219,545.891541 732.739868,548.635071 
	C714.009460,567.602051 695.039429,586.332703 676.354919,605.344116 
	C674.517578,607.213684 673.271484,610.427429 673.150269,613.081238 
	C672.740051,622.060364 672.959534,631.068298 672.885864,640.531128 
z"/>
<path fill="#3A5651" opacity="1.000000" stroke="none" 
	d="
M542.072510,989.351685 
	C560.716187,989.026794 579.547729,988.922913 598.377625,989.057373 
	C603.189331,989.091736 606.907227,987.708923 610.376892,984.228455 
	C660.261475,934.187988 710.223938,884.224976 760.265198,834.341187 
	C763.753540,830.863831 765.072144,827.125793 765.054810,822.326599 
	C764.949280,793.163940 765.019287,764.000671 765.036377,734.361450 
	C768.282593,735.785400 769.083130,738.628296 769.067139,742.297546 
	C768.942993,770.781921 768.944275,799.267395 769.068848,827.751770 
	C769.084045,831.213928 767.976257,833.621216 765.561890,836.030151 
	C714.384033,887.092773 663.260315,938.209778 612.204346,989.394287 
	C609.660095,991.944946 607.147522,993.114929 603.493286,993.078674 
	C585.671143,992.901855 567.844116,993.133301 550.024719,992.849609 
	C547.420105,992.808167 544.847229,990.773499 542.072510,989.351685 
z"/>
<path fill="#3A5651" opacity="1.000000" stroke="none" 
	d="
M190.072479,989.351685 
	C229.493011,989.027893 269.101227,988.919861 308.708130,989.098022 
	C314.809723,989.125427 319.328583,987.376648 323.684998,982.980469 
	C356.835632,949.527649 390.206055,916.292603 423.512024,882.993774 
	C424.806030,881.699951 426.053192,880.337708 427.474213,879.196716 
	C431.021759,876.348389 432.782990,876.913696 434.891052,881.758423 
	C432.579315,883.303528 429.686829,883.975159 427.896118,885.755188 
	C393.433563,920.012329 359.070648,954.369934 324.793457,988.812622 
	C321.899811,991.720154 319.066986,993.117371 314.833710,993.098877 
	C276.060211,992.929749 237.285614,992.967102 198.511597,993.055237 
	C195.135239,993.062927 192.254486,992.642395 190.072479,989.351685 
z"/>
<path fill="#92DD7E" opacity="1.000000" stroke="none" 
	d="
M162.700180,351.973389 
	C163.656647,355.924072 164.874924,359.996002 164.903229,364.076172 
	C165.080841,389.668243 165.024216,415.262207 164.953674,440.855286 
	C164.945038,443.993469 164.392273,447.130096 164.024414,450.690735 
	C162.972214,448.667297 161.149155,446.226898 161.130722,443.772949 
	C160.925964,416.501770 161.009995,389.228455 160.981339,361.955750 
	C160.979080,359.808807 160.717651,357.662140 160.284622,355.195587 
	C160.799011,353.950043 161.605438,353.024231 162.700180,351.973389 
z"/>
<path fill="#3A5651" opacity="1.000000" stroke="none" 
	d="
M115.525787,911.505859 
	C115.859772,912.337463 115.896446,913.265015 115.945457,914.653625 
	C115.378319,914.605164 114.798843,914.095642 114.112411,913.061340 
	C114.020836,912.363831 114.036217,912.191223 114.051605,912.018555 
	C114.443901,911.879700 114.836189,911.740784 115.525787,911.505859 
z"/>
<path fill="#3A8F64" opacity="1.000000" stroke="none" 
	d="
M113.760368,912.022583 
	C114.036217,912.191223 114.020836,912.363831 113.990662,912.795898 
	C113.685837,912.876709 113.395821,912.698181 112.996338,912.281555 
	C113.080956,912.037903 113.275047,912.032288 113.760368,912.022583 
z"/>
<path fill="#3A5651" opacity="1.000000" stroke="none" 
	d="
M352.777008,769.760315 
	C352.698639,769.747498 352.518921,769.570923 352.214752,769.253296 
	C352.312805,769.239807 352.507935,769.401306 352.777008,769.760315 
z"/>
</svg>